<?xml version="1.0" standalone="no"?><!DOCTYPE svg PUBLIC "-//W3C//DTD SVG 1.1//EN" "http://www.w3.org/Graphics/SVG/1.1/DTD/svg11.dtd"><svg class="icon" width="200px" height="200.00px" viewBox="0 0 1024 1024" version="1.1" xmlns="http://www.w3.org/2000/svg"><path d="M590.222222 73.955556L859.022222 342.254933V876.088889c0 37.700267-30.5664 68.266667-68.266666 68.266667H233.244444c-37.700267 0-68.266667-30.5664-68.266666-68.266667V142.222222c0-37.700267 30.5664-68.266667 68.266666-68.266666h356.977778z m-11.764622 28.444444H233.244444a39.822222 39.822222 0 0 0-39.799466 38.456889L193.422222 142.222222v733.866667a39.822222 39.822222 0 0 0 38.456889 39.799467L233.244444 915.911111h557.511112a39.822222 39.822222 0 0 0 39.799466-38.456889L830.577778 876.088889V354.053689L578.4576 102.4z" fill="#8592A5" /><path d="M854.755556 370.648178h-215.1424c-45.528178 0-82.551467-36.431644-83.5072-81.737956l-0.017067-1.792V73.955556h28.444444v213.162666c0 29.895111 23.819378 54.232178 53.515378 55.062756l1.564445 0.022755h215.1424v28.444445z" fill="#8592A5" /><path d="M79.644444 489.244444m28.444445 0l853.333333 0q28.444444 0 28.444445 28.444445l0 284.444444q0 28.444444-28.444445 28.444445l-853.333333 0q-28.444444 0-28.444445-28.444445l0-284.444444q0-28.444444 28.444445-28.444445Z" fill="#8592A5" /><path d="M372.548267 756.622222V565.902222h-45.818311V756.622222h45.818311z m102.912 3.584c46.08 0 72.704-27.904 72.704-59.648 0-26.88-14.08-42.752-37.626311-52.224l-23.808-9.472c-16.896-6.656-28.672-10.752-28.672-21.504 0-9.984 8.442311-15.616 22.528-15.616 14.848 0 26.624 5.12 39.168 14.592l22.784-28.672c-16.64-16.64-39.936-25.088-61.952-25.088-40.448 0-69.12 25.6-69.12 57.6 0 27.648 18.682311 44.288 38.650311 52.224l24.32 10.24c16.384 6.912 26.88 10.496 26.88 21.504 0 10.24-7.930311 16.64-24.832 16.64-15.098311 0-32.768-7.936-46.08-19.456l-26.112 31.488c19.717689 18.176 46.341689 27.392 71.168 27.392z m183.04 0c51.973689 0 87.301689-37.376 87.301689-99.84 0-62.208-35.328-97.792-87.301689-97.792-51.962311 0-87.290311 35.328-87.290311 97.792s35.328 99.84 87.290311 99.84z m0-39.424c-25.088 0-40.448-23.552-40.448-60.416 0-36.864 15.36-58.624 40.448-58.624s40.709689 21.76 40.709689 58.624c0 36.864-15.621689 60.416-40.709689 60.416z" fill="#FFFFFF" /></svg>