<?xml version="1.0" standalone="no"?><!DOCTYPE svg PUBLIC "-//W3C//DTD SVG 1.1//EN" "http://www.w3.org/Graphics/SVG/1.1/DTD/svg11.dtd"><svg class="icon" width="200px" height="200.00px" viewBox="0 0 1024 1024" version="1.1" xmlns="http://www.w3.org/2000/svg"><path d="M0 0h1024v1024H0z" fill="#FFFFFF" /><path d="M213.333333 405.333333h597.333334l85.333333 85.333334v234.666666H128V490.666667z" fill="#0044CB" /><path d="M725.333333 896H298.666667a85.333333 85.333333 0 0 1-85.333334-85.333333V213.333333a85.333333 85.333333 0 0 1 85.333334-85.333333h341.333333l170.666667 170.666667v512a85.333333 85.333333 0 0 1-85.333334 85.333333z" fill="#EEF1FF" /><path d="M128 490.666667h768v256H128z" fill="#3478FF" /><path d="M640 128l170.666667 170.666667h-85.333334a85.333333 85.333333 0 0 1-85.333333-85.333334z" fill="#C4C8D9" /><path d="M328.832 535.893333h30.314667v114.389334a54.698667 54.698667 0 0 1-13.802667 39.146666 46.677333 46.677333 0 0 1-35.477333 14.442667 53.994667 53.994667 0 0 1-38.122667-12.970667 47.253333 47.253333 0 0 1-13.610667-37.589333l0.213334-0.682667h29.653333a27.733333 27.733333 0 0 0 5.930667 19.498667 20.778667 20.778667 0 0 0 15.936 6.4 16.085333 16.085333 0 0 0 13.653333-7.573333 35.477333 35.477333 0 0 0 5.312-20.586667z m88.448 105.578667v60.074667h-30.442667V535.893333h58.026667a56.512 56.512 0 0 1 41.152 14.570667 51.2 51.2 0 0 1 14.933333 38.4 50.666667 50.666667 0 0 1-14.933333 38.229333 56.789333 56.789333 0 0 1-41.152 14.442667z m0-25.6h27.605333a24.128 24.128 0 0 0 19.2-7.509333 28.416 28.416 0 0 0 6.570667-19.2 29.866667 29.866667 0 0 0-6.506667-19.733334 23.722667 23.722667 0 0 0-19.328-7.786666h-27.605333z m192.192 12.8h-56.277333v47.317333h66.88v25.6h-97.237334V535.893333h97.088v25.6h-66.666666v41.642667h56.256z m148.202667 50.197333a58.645333 58.645333 0 0 1-21.141334 17.578667 76.992 76.992 0 0 1-36.266666 7.445333 58.538667 58.538667 0 0 1-44.992-18.88 69.226667 69.226667 0 0 1-17.493334-48.938666v-34.773334a70.698667 70.698667 0 0 1 17.066667-48.938666 55.936 55.936 0 0 1 43.648-18.944 58.602667 58.602667 0 0 1 42.666667 14.4 49.6 49.6 0 0 1 14.037333 38.4l-0.213333 0.682666h-28.565334a28.693333 28.693333 0 0 0-6.976-20.565333 26.730667 26.730667 0 0 0-20.309333-7.338667 26.453333 26.453333 0 0 0-22.506667 11.776 50.432 50.432 0 0 0-8.533333 30.293334v34.816a50.026667 50.026667 0 0 0 8.746667 30.656 27.733333 27.733333 0 0 0 23.466666 11.84 49.450667 49.450667 0 0 0 17.066667-2.325334 25.792 25.792 0 0 0 9.749333-6.037333v-32.106667h-29.141333v-22.976h59.733333z" fill="#FFFFFF" /></svg>