<?xml version="1.0" standalone="no"?><!DOCTYPE svg PUBLIC "-//W3C//DTD SVG 1.1//EN" "http://www.w3.org/Graphics/SVG/1.1/DTD/svg11.dtd"><svg class="icon" width="200px" height="200.00px" viewBox="0 0 1024 1024" version="1.1" xmlns="http://www.w3.org/2000/svg"><path d="M0 0h1024v1024H0z" fill="#FFFFFF" /><path d="M213.333333 405.333333h597.333334l85.333333 85.333334v234.666666H128V490.666667z" fill="#005025" /><path d="M725.333333 896H298.666667a85.333333 85.333333 0 0 1-85.333334-85.333333V213.333333a85.333333 85.333333 0 0 1 85.333334-85.333333h341.333333l170.666667 170.666667v512a85.333333 85.333333 0 0 1-85.333334 85.333333z" fill="#EEF1FF" /><path d="M128 490.666667h768v256H128z" fill="#1F9B59" /><path d="M640 128l170.666667 170.666667h-85.333334a85.333333 85.333333 0 0 1-85.333333-85.333334z" fill="#C4C8D9" /><path d="M433.237333 633.578667a73.301333 73.301333 0 0 1-17.6 50.410666 62.656 62.656 0 0 1-91.456 0 73.493333 73.493333 0 0 1-17.493333-50.368v-29.866666a73.472 73.472 0 0 1 17.450667-50.325334 57.450667 57.450667 0 0 1 45.461333-19.968 58.56 58.56 0 0 1 45.930667 19.968 73.066667 73.066667 0 0 1 17.706666 50.325334z m-30.314666-29.866667a53.333333 53.333333 0 0 0-8.853334-31.808 28.437333 28.437333 0 0 0-24.469333-12.437333 27.52 27.52 0 0 0-23.957333 12.437333 54.464 54.464 0 0 0-8.533334 31.722667v30.016a54.784 54.784 0 0 0 8.533334 32 27.733333 27.733333 0 0 0 24.170666 12.394666 28.16 28.16 0 0 0 24.384-12.394666 54.485333 54.485333 0 0 0 8.746667-32z m170.666666 75.264a58.624 58.624 0 0 1-21.141333 17.557333 77.034667 77.034667 0 0 1-36.266667 7.317334 58.538667 58.538667 0 0 1-45.013333-18.816 69.162667 69.162667 0 0 1-17.493333-48.896V601.386667a70.634667 70.634667 0 0 1 17.066666-48.896 55.872 55.872 0 0 1 43.456-18.901334 58.624 58.624 0 0 1 42.666667 14.4 49.6 49.6 0 0 1 14.272 38.4l-0.213333 0.682667h-28.608a28.650667 28.650667 0 0 0-6.976-20.565333 26.730667 26.730667 0 0 0-20.309334-7.338667 26.453333 26.453333 0 0 0-22.506666 11.754667 50.368 50.368 0 0 0-8.533334 30.272v34.794666a50.005333 50.005333 0 0 0 8.746667 30.656 27.733333 27.733333 0 0 0 23.466667 11.84 49.514667 49.514667 0 0 0 17.066666-2.325333 25.792 25.792 0 0 0 9.749334-6.037333v-32h-29.141334v-22.954667h59.733334z m142.08 0a58.602667 58.602667 0 0 1-21.141333 17.557333 76.992 76.992 0 0 1-36.266667 7.445334 58.602667 58.602667 0 0 1-45.013333-18.965334 69.162667 69.162667 0 0 1-17.493333-48.896v-34.752a70.634667 70.634667 0 0 1 17.066666-48.896 55.957333 55.957333 0 0 1 43.648-18.944 58.645333 58.645333 0 0 1 42.666667 14.4 49.6 49.6 0 0 1 14.272 38.4l-0.213333 0.682667h-28.8a28.714667 28.714667 0 0 0-6.997334-20.544 29.248 29.248 0 0 0-42.794666 4.48 50.368 50.368 0 0 0-8.533334 30.272v34.794667a50.176 50.176 0 0 0 8.725334 30.592 27.733333 27.733333 0 0 0 23.466666 11.84 49.514667 49.514667 0 0 0 17.066667-2.325334 25.770667 25.770667 0 0 0 9.749333-6.037333v-32h-29.12v-22.954667h59.733334z" fill="#FFFFFF" /></svg>