<?xml version="1.0" standalone="no"?><!DOCTYPE svg PUBLIC "-//W3C//DTD SVG 1.1//EN" "http://www.w3.org/Graphics/SVG/1.1/DTD/svg11.dtd"><svg class="icon" width="200px" height="200.00px" viewBox="0 0 1024 1024" version="1.1" xmlns="http://www.w3.org/2000/svg"><path d="M590.222222 79.644444L859.022222 347.943822V881.777778c0 37.700267-30.5664 68.266667-68.266666 68.266666H233.244444c-37.700267 0-68.266667-30.5664-68.266666-68.266666V147.911111c0-37.700267 30.5664-68.266667 68.266666-68.266667h356.977778z m-11.764622 28.444445H233.244444a39.822222 39.822222 0 0 0-39.799466 38.456889L193.422222 147.911111v733.866667a39.822222 39.822222 0 0 0 38.456889 39.799466L233.244444 921.6h557.511112a39.822222 39.822222 0 0 0 39.799466-38.456889L830.577778 881.777778V359.742578L578.4576 108.088889z" fill="#FF7875" /><path d="M854.755556 376.337067h-215.1424c-45.528178 0-82.551467-36.431644-83.5072-81.737956l-0.017067-1.792V79.644444h28.444444v213.162667c0 29.895111 23.819378 54.232178 53.515378 55.062756l1.564445 0.022755h215.1424v28.444445z" fill="#FF7875" /><path d="M56.888889 494.933333m28.444444 0l853.333334 0q28.444444 0 28.444444 28.444445l0 284.444444q0 28.444444-28.444444 28.444445l-853.333334 0q-28.444444 0-28.444444-28.444445l0-284.444444q0-28.444444 28.444444-28.444445Z" fill="#FF7875" /><path d="M318.435556 762.311111v-63.232h22.272c40.448 0 75.264-19.968 75.264-65.28 0-47.104-34.56-62.208-76.288-62.208H272.611556V762.311111h45.824z m19.968-99.328h-19.968v-55.04h18.688c22.016 0 34.304 6.656 34.304 25.856 0 18.688-10.752 29.184-33.024 29.184zM505.827556 762.311111c55.552 0 93.952-29.952 93.952-96.256 0-66.304-38.4-94.464-96.512-94.464h-54.784V762.311111h57.344z m-5.376-36.864h-6.144v-117.248h6.144c30.72 0 52.48 12.544 52.48 57.856s-21.76 59.392-52.48 59.392z m180.48 36.864v-72.704h65.024v-38.144h-65.024v-41.728h75.776v-38.144H635.107556V762.311111h45.824z" fill="#FFFFFF" /></svg>