<?xml version="1.0" standalone="no"?><!DOCTYPE svg PUBLIC "-//W3C//DTD SVG 1.1//EN" "http://www.w3.org/Graphics/SVG/1.1/DTD/svg11.dtd"><svg class="icon" width="200px" height="200.00px" viewBox="0 0 1024 1024" version="1.1" xmlns="http://www.w3.org/2000/svg"><path d="M0 0h1024v1024H0z" fill="#FFFFFF" /><path d="M213.333333 405.333333h597.333334l85.333333 85.333334v234.666666H128V490.666667z" fill="#686868" /><path d="M725.333333 896H298.666667a85.333333 85.333333 0 0 1-85.333334-85.333333V213.333333a85.333333 85.333333 0 0 1 85.333334-85.333333h341.333333l170.666667 170.666667v512a85.333333 85.333333 0 0 1-85.333334 85.333333z" fill="#EEF1FF" /><path d="M128 490.666667h768v256H128z" fill="#A8A1A0" /><path d="M640 128l170.666667 170.666667h-85.333334a85.333333 85.333333 0 0 1-85.333333-85.333334z" fill="#C4C8D9" /><path d="M382.037333 559.722667h-43.328v144.256h-30.421333v-144.256h-42.666667v-26.410667h116.458667z m103.338667 69.269333h-56.256v48.746667h66.88V704h-97.301333v-170.666667h97.088v26.410667h-66.666667v42.88h56.256z m85.632-35.157333l28.394667-60.458667h35.413333l-44.970667 84.608L637.461333 704h-36.778666l-29.269334-61.504L542.144 704h-35.52l46.144-86.016-45.098667-84.608h35.2z m187.733333-34.133334h-43.264v144.256h-30.421333v-144.256h-42.666667v-26.410666h116.458667z" fill="#FFFFFF" /></svg>