<?xml version="1.0" standalone="no"?><!DOCTYPE svg PUBLIC "-//W3C//DTD SVG 1.1//EN" "http://www.w3.org/Graphics/SVG/1.1/DTD/svg11.dtd"><svg class="icon" width="200px" height="200.00px" viewBox="0 0 1024 1024" version="1.1" xmlns="http://www.w3.org/2000/svg"><path d="M0 0h1024v1024H0z" fill="#FFFFFF" /><path d="M213.333333 405.333333h597.333334l85.333333 85.333334v234.666666H128V490.666667z" fill="#180094" /><path d="M725.333333 896H298.666667a85.333333 85.333333 0 0 1-85.333334-85.333333V213.333333a85.333333 85.333333 0 0 1 85.333334-85.333333h341.333333l170.666667 170.666667v512a85.333333 85.333333 0 0 1-85.333334 85.333333z" fill="#EEF1FF" /><path d="M128 490.666667h768v256H128z" fill="#4327D6" /><path d="M640 128l170.666667 170.666667h-85.333334a85.333333 85.333333 0 0 1-85.333333-85.333334z" fill="#C4C8D9" /><path d="M480.533333 678.826667a58.602667 58.602667 0 0 1-21.141333 17.578666 77.034667 77.034667 0 0 1-36.266667 7.466667 58.56 58.56 0 0 1-44.970666-18.88 69.226667 69.226667 0 0 1-17.493334-48.938667v-34.773333a70.698667 70.698667 0 0 1 17.066667-48.938667 55.936 55.936 0 0 1 43.648-18.944 58.602667 58.602667 0 0 1 42.666667 14.4 49.642667 49.642667 0 0 1 14.272 38.4l-0.213334 0.682667h-28.8a28.736 28.736 0 0 0-6.997333-20.544 26.730667 26.730667 0 0 0-20.309333-7.338667 26.432 26.432 0 0 0-22.506667 11.776 50.410667 50.410667 0 0 0-8.533333 30.293334v34.816a50.048 50.048 0 0 0 8.746666 30.656 27.733333 27.733333 0 0 0 23.466667 11.84 49.514667 49.514667 0 0 0 17.066667-2.325334 25.834667 25.834667 0 0 0 9.749333-6.037333v-32.106667h-29.12v-22.976h59.733333z m58.346667 22.656h-30.421333V535.893333h30.421333z m118.741333-68.821334H599.466667v68.821334h-30.485334V535.893333h99.264v25.6H599.466667v45.632h58.154666z" fill="#FFFFFF" /></svg>