<?xml version="1.0" standalone="no"?><!DOCTYPE svg PUBLIC "-//W3C//DTD SVG 1.1//EN" "http://www.w3.org/Graphics/SVG/1.1/DTD/svg11.dtd"><svg class="icon" width="200px" height="200.00px" viewBox="0 0 1024 1024" version="1.1" xmlns="http://www.w3.org/2000/svg"><path d="M590.222222 73.955556L859.022222 342.254933V876.088889c0 37.700267-30.5664 68.266667-68.266666 68.266667H233.244444c-37.700267 0-68.266667-30.5664-68.266666-68.266667V142.222222c0-37.700267 30.5664-68.266667 68.266666-68.266666h356.977778z m-11.764622 28.444444H233.244444a39.822222 39.822222 0 0 0-39.799466 38.456889L193.422222 142.222222v733.866667a39.822222 39.822222 0 0 0 38.456889 39.799467L233.244444 915.911111h557.511112a39.822222 39.822222 0 0 0 39.799466-38.456889L830.577778 876.088889V354.053689L578.4576 102.4z" fill="#40A9FF" /><path d="M854.755556 370.648178h-215.1424c-45.528178 0-82.551467-36.431644-83.5072-81.737956l-0.017067-1.792V73.955556h28.444444v213.162666c0 29.895111 23.819378 54.232178 53.515378 55.062756l1.564445 0.022755h215.1424v28.444445z" fill="#40A9FF" /><path d="M56.888889 489.244444m28.444444 0l853.333334 0q28.444444 0 28.444444 28.444445l0 284.444444q0 28.444444-28.444444 28.444445l-853.333334 0q-28.444444 0-28.444444-28.444445l0-284.444444q0-28.444444 28.444444-28.444445Z" fill="#40A9FF" /><path d="M126.896356 705.422222c29.240889 0 49.4592-15.189333 49.4592-48.810666S156.142933 608.711111 125.553778 608.711111H96.711111v96.711111h30.185245z m-3.851378-17.066666H119.466667v-56.888889h3.578311c17.885867 0 30.555022 6.087111 30.555022 28.068977C153.6 681.528889 140.930844 688.355556 123.044978 688.355556z m107.355022 22.755555c25.400889 0 42.666667-19.364978 42.666667-51.729067 0-32.233244-17.265778-50.670933-42.666667-50.670933s-42.666667 18.306844-42.666667 50.670933S204.999111 711.111111 230.4 711.111111z m2.770489-22.755555c-14.068622 0-22.6816-11.252622-22.6816-28.871112 0-17.618489 8.612978-28.017778 22.6816-28.017777 14.074311 0 22.829511 10.399289 22.829511 28.017777 0 17.618489-8.760889 28.871111-22.829511 28.871112z m103.913244 22.755555c13.050311 0 24.2176-4.909511 32.694045-14.592l-12.6464-14.853689c-4.7104 5.040356-11.036444 9.016889-19.103289 9.016889-14.125511 0-23.273244-11.406222-23.273245-31.038578 0-19.228444 10.626844-30.640356 23.540623-30.640355 7.133867 0 12.379022 3.185778 17.493333 7.697066l12.509867-15.121066c-6.8608-6.900622-17.351111-12.868267-30.407111-12.868267-25.429333 0-47.758222 18.830222-47.758223 51.729067 0 33.427911 21.526756 50.670933 46.9504 50.670933z m68.278045-5.688889v-25.315555l10.9568-14.279111 23.802311 39.594666H466.488889l-36.107378-57.895822L460.811378 608.711111h-26.510222l-28.535467 38.2976h-0.398222V608.711111H381.155556v96.711111h24.206222zM540.444444 705.422222v-19.473066h-39.384177v-20.508445h32.256v-19.473067h-32.256V628.053333h37.956266V608.711111H477.866667v96.711111h62.577777z m52.127289 0v-34.013866h11.377778l18.1248 34.013866H648.533333l-21.959111-38.2976c10.183111-4.670578 16.930133-13.755733 16.930134-27.909689 0-23.364267-17.464889-30.503822-38.496712-30.503822H568.888889v96.711111h23.682844z m9.858845-45.511111H591.644444v-28.444444h10.786134c11.457422 0 17.658311 3.271111 17.658311 13.226666 0 9.955556-6.200889 15.217778-17.658311 15.217778z m81.066666 45.511111v-36.864h33.456356v-19.342222h-33.462044v-21.162667H722.488889V608.711111h-62.577778v96.711111h23.580445zM762.311111 705.422222v-96.711111h-22.755555v96.711111h22.755555z m79.644445 0v-19.473066h-35.1744V608.711111H785.066667v96.711111h56.888889z m91.022222 0v-19.473066h-39.384178v-20.508445h32.256v-19.473067h-32.256V628.053333h37.956267V608.711111H870.4v96.711111h62.577778z" fill="#FFFFFF" /></svg>