<?xml version="1.0" standalone="no"?><!DOCTYPE svg PUBLIC "-//W3C//DTD SVG 1.1//EN" "http://www.w3.org/Graphics/SVG/1.1/DTD/svg11.dtd"><svg class="icon" width="200px" height="200.00px" viewBox="0 0 1024 1024" version="1.1" xmlns="http://www.w3.org/2000/svg"><path d="M0 0h1024v1024H0z" fill="#FFFFFF" /><path d="M213.333333 405.333333h597.333334l85.333333 85.333334v234.666666H128V490.666667z" fill="#5D1C00" /><path d="M725.333333 896H298.666667a85.333333 85.333333 0 0 1-85.333334-85.333333V213.333333a85.333333 85.333333 0 0 1 85.333334-85.333333h341.333333l170.666667 170.666667v512a85.333333 85.333333 0 0 1-85.333334 85.333333z" fill="#EEF1FF" /><path d="M128 490.666667h768v256H128z" fill="#AB542E" /><path d="M640 128l170.666667 170.666667h-85.333334a85.333333 85.333333 0 0 1-85.333333-85.333334z" fill="#C4C8D9" /><path d="M382.528 659.114667h0.618667l38.954666-125.866667h39.68v170.666667h-30.4v-116.522667h-0.618666l-37.504 116.522667h-20.629334l-37.504-116.864h-0.618666v116.864h-30.421334v-170.666667h39.893334z m192.704-18.624h17.066667v26.410666h-17.066667v37.12h-30.421333v-37.034666h-61.866667l-1.365333-20.565334 62.912-113.066666h30.72z m-66.133333 0h35.626666v-62.016h-0.618666l-3.114667 7.616z m182.101333 26.730666h-49.066667l-10.346666 36.8h-31.765334l51.2-170.666666h31.146667l50.88 170.666666h-31.765333z m-41.706667-26.837333h34.282667l-16.768-60.010667h-0.64z" fill="#FFFFFF" /></svg>