<?xml version="1.0" standalone="no"?><!DOCTYPE svg PUBLIC "-//W3C//DTD SVG 1.1//EN" "http://www.w3.org/Graphics/SVG/1.1/DTD/svg11.dtd"><svg class="icon" width="200px" height="200.00px" viewBox="0 0 1024 1024" version="1.1" xmlns="http://www.w3.org/2000/svg"><path d="M590.222222 73.955556L859.022222 342.254933V876.088889c0 37.700267-30.5664 68.266667-68.266666 68.266667H233.244444c-37.700267 0-68.266667-30.5664-68.266666-68.266667V142.222222c0-37.700267 30.5664-68.266667 68.266666-68.266666h356.977778z m-11.764622 28.444444H233.244444a39.822222 39.822222 0 0 0-39.799466 38.456889L193.422222 142.222222v733.866667a39.822222 39.822222 0 0 0 38.456889 39.799467L233.244444 915.911111h557.511112a39.822222 39.822222 0 0 0 39.799466-38.456889L830.577778 876.088889V354.053689L578.4576 102.4z" fill="#597EF7" /><path d="M854.755556 370.648178h-215.1424c-45.528178 0-82.551467-36.431644-83.5072-81.737956l-0.017067-1.792V73.955556h28.444444v213.162666c0 29.895111 23.819378 54.232178 53.515378 55.062756l1.564445 0.022755h215.1424v28.444445z" fill="#597EF7" /><path d="M56.888889 489.244444m28.444444 0l853.333334 0q28.444444 0 28.444444 28.444445l0 284.444444q0 28.444444-28.444444 28.444445l-853.333334 0q-28.444444 0-28.444444-28.444445l0-284.444444q0-28.444444 28.444444-28.444445Z" fill="#597EF7" /><path d="M291.145956 756.622222v-65.28c0-18.944-3.584-47.36-5.888-66.048h1.024l15.36 45.568 25.850311 69.632h25.088l25.6-69.632 15.872-45.568h1.285689c-2.56 18.688-6.144 47.104-6.144 66.048V756.622222h41.728V565.902222h-49.664l-29.184 82.432c-3.584 11.008-6.656 23.04-10.501689 34.56h-1.274311c-3.584-11.52-6.656-23.552-10.501689-34.56l-30.208-82.432h-49.402311V756.622222h40.96zM541.769956 565.902222c41.722311 0 76.288 15.104 76.288 62.208 0 45.312-34.816 65.28-75.264 65.28h-22.272V756.622222h-45.829689V565.902222z m-2.56 36.352h-18.688v55.04h19.968c22.272 0 33.024-10.496 33.024-29.184 0-19.2-12.288-25.856-34.304-25.856zM756.804267 756.622222v-43.264h20.992v-34.816h-20.992V570.766222h-56.32l-66.298311 110.848v31.744h80.128V756.622222z" fill="#FFFFFF" /><path d="M714.313956 678.542222h-36.613689l21.765689-37.376c5.370311-11.008 10.490311-21.504 15.36-32.256h1.024c-0.512 12.032-1.536 30.464-1.536 42.496v27.136z" fill="#FFFFFF" /></svg>