<?xml version="1.0" standalone="no"?><!DOCTYPE svg PUBLIC "-//W3C//DTD SVG 1.1//EN" "http://www.w3.org/Graphics/SVG/1.1/DTD/svg11.dtd"><svg class="icon" width="200px" height="200.00px" viewBox="0 0 1024 1024" version="1.1" xmlns="http://www.w3.org/2000/svg"><path d="M0 0h1024v1024H0z" fill="#FFFFFF" /><path d="M213.333333 405.333333h597.333334l85.333333 85.333334v234.666666H128V490.666667z" fill="#0600AB" /><path d="M725.333333 896H298.666667a85.333333 85.333333 0 0 1-85.333334-85.333333V213.333333a85.333333 85.333333 0 0 1 85.333334-85.333333h341.333333l170.666667 170.666667v512a85.333333 85.333333 0 0 1-85.333334 85.333333z" fill="#EEF1FF" /><path d="M128 490.666667h768v256H128z" fill="#3B34FF" /><path d="M640 128l170.666667 170.666667h-85.333334a85.333333 85.333333 0 0 1-85.333333-85.333334z" fill="#C4C8D9" /><path d="M291.370667 642.154667v61.866666h-30.421334v-170.56h58.026667a55.466667 55.466667 0 0 1 41.152 14.933334 53.589333 53.589333 0 0 1 14.933333 39.488 53.013333 53.013333 0 0 1-14.933333 39.36 55.786667 55.786667 0 0 1-41.152 14.933333z m0-26.389334h27.605333a23.658667 23.658667 0 0 0 19.2-7.722666 29.866667 29.866667 0 0 0 6.570667-19.861334 31.296 31.296 0 0 0-6.506667-20.330666 23.466667 23.466667 0 0 0-19.328-8.021334h-27.605333z m135.936 26.389334v61.866666H396.8v-170.56h58.026667a55.466667 55.466667 0 0 1 41.152 14.933334 59.562667 59.562667 0 0 1 0 78.784 55.786667 55.786667 0 0 1-41.152 14.933333z m0-26.389334h27.605333a23.68 23.68 0 0 0 19.2-7.722666 29.866667 29.866667 0 0 0 6.570667-19.861334 31.296 31.296 0 0 0-6.506667-20.330666 23.466667 23.466667 0 0 0-19.328-8.021334h-27.733333z m211.2-56H595.2V704h-30.378667v-144.213333h-42.666666v-26.389334h116.416z m70.4 34.133334l28.437333-60.458667h35.413333l-45.034666 84.608 47.616 85.994667H738.56l-29.269333-61.610667-29.269334 61.482667h-35.584l46.144-85.994667-44.992-84.565333h35.2z" fill="#FFFFFF" /></svg>