<?xml version="1.0" standalone="no"?><!DOCTYPE svg PUBLIC "-//W3C//DTD SVG 1.1//EN" "http://www.w3.org/Graphics/SVG/1.1/DTD/svg11.dtd"><svg class="icon" width="200px" height="200.00px" viewBox="0 0 1024 1024" version="1.1" xmlns="http://www.w3.org/2000/svg"><path d="M0 0h1024v1024H0z" fill="#FFFFFF" /><path d="M213.333333 405.333333h597.333334l85.333333 85.333334v234.666666H128V490.666667z" fill="#003294" /><path d="M725.333333 896H298.666667a85.333333 85.333333 0 0 1-85.333334-85.333333V213.333333a85.333333 85.333333 0 0 1 85.333334-85.333333h341.333333l170.666667 170.666667v512a85.333333 85.333333 0 0 1-85.333334 85.333333z" fill="#EEF1FF" /><path d="M128 490.666667h768v256H128z" fill="#2A62D1" /><path d="M640 128l170.666667 170.666667h-85.333334a85.333333 85.333333 0 0 1-85.333333-85.333334z" fill="#C4C8D9" /><path d="M417.877333 648.277333h0.618667l20.096-112.469333h31.36l-35.392 165.76h-28.245333l-27.904-109.184h-0.618667L349.866667 701.568h-28.117334l-35.413333-165.76h31.36l20.202667 112.362667h0.618666l27.285334-112.362667H390.4z m121.856-53.738666l28.437334-58.752h35.413333l-44.970667 82.218666 47.616 83.562667h-36.778666l-29.269334-59.733333-29.269333 59.733333h-35.52l46.144-83.562667-45.013333-82.197333h35.2z m161.173334 63.765333a20.288 20.288 0 0 0-6.101334-15.36 59.008 59.008 0 0 0-21.333333-10.944 116.778667 116.778667 0 0 1-39.872-20.373333 40.021333 40.021333 0 0 1-13.589333-32 41.536 41.536 0 0 1 15.317333-33.301334 65.514667 65.514667 0 0 1 79.552 1.045334 45.290667 45.290667 0 0 1 14.933333 36.437333l-0.213333 0.682667h-29.525333a25.450667 25.450667 0 0 0-6.869334-19.072 26.624 26.624 0 0 0-19.2-6.677334 24.021333 24.021333 0 0 0-17.386666 5.930667 20.053333 20.053333 0 0 0-6.144 15.125333 17.066667 17.066667 0 0 0 6.677333 13.824 85.952 85.952 0 0 0 23.018667 11.456 95.744 95.744 0 0 1 38.122666 20.224 43.264 43.264 0 0 1 13.12 32.853334 40.981333 40.981333 0 0 1-15.210666 33.578666 62.08 62.08 0 0 1-40.298667 12.138667 67.392 67.392 0 0 1-42.026667-13.312 45.504 45.504 0 0 1-17.066666-39.637333l0.213333-0.682667h29.504a27.370667 27.370667 0 0 0 7.914667 21.632 31.338667 31.338667 0 0 0 21.461333 6.997333 27.477333 27.477333 0 0 0 18.602667-5.568 18.794667 18.794667 0 0 0 6.4-14.997333z" fill="#FFFFFF" /></svg>